<svg width="35" height="24" viewBox="0 0 35 24" fill="none" xmlns="http://www.w3.org/2000/svg">
<path d="M0.614736 3.15937L0.599548 5.12493H6.84705V22.8774H11.266V5.12493H17.5137V3.19743C17.5137 2.13055 17.4909 1.23918 17.4605 1.2163C17.4376 1.18593 13.6355 1.17055 9.02617 1.17824L0.637424 1.20111L0.614736 3.15918V3.15937ZM28.7313 1.14524C29.9502 1.44993 30.8799 1.99086 31.7332 2.87474C32.1751 3.34724 32.8302 4.20805 32.8837 4.41374C32.8987 4.47468 30.8112 5.87662 29.5465 6.66149C29.5008 6.69187 29.3178 6.49387 29.1121 6.18899C28.495 5.28993 27.8474 4.90143 26.8569 4.8328C25.4019 4.7338 24.4645 5.49561 24.4722 6.76799C24.4722 7.14149 24.5255 7.36237 24.6779 7.66706C24.998 8.33006 25.5922 8.72624 27.4589 9.5338C30.895 11.0119 32.3654 11.9871 33.2799 13.3738C34.3008 14.9205 34.5294 17.3891 33.836 19.2253C33.0742 21.2214 31.1847 22.5776 28.5254 23.0271C27.7027 23.1718 25.7523 23.1489 24.8684 22.989C22.9409 22.6462 21.1122 21.6937 19.9846 20.4442C19.5427 19.9567 18.6817 18.6842 18.7351 18.5929C18.758 18.5623 18.956 18.4404 19.1769 18.3109C19.3902 18.189 20.198 17.7242 20.9598 17.2824L22.3389 16.4824L22.6284 16.9091C23.0322 17.526 23.9159 18.3718 24.4494 18.6538C25.9807 19.4614 28.0837 19.3472 29.1198 18.4176C29.5617 18.0139 29.7445 17.5948 29.7445 16.9776C29.7445 16.4214 29.6759 16.1777 29.3864 15.7586C29.0133 15.2252 28.2513 14.7757 26.0874 13.8386C23.6112 12.7717 22.5445 12.1091 21.5694 11.0576C21.0055 10.4482 20.4721 9.47287 20.2512 8.65762C20.0684 7.97943 20.0225 6.28049 20.1674 5.5948C20.678 3.2023 22.4836 1.53374 25.0893 1.03855C25.9349 0.878615 27.9007 0.939552 28.7313 1.14524V1.14524Z" fill="white"/>
</svg>

